<?xml version="1.0" encoding="UTF-8"?>
<svg id="_レイヤー_1" data-name="レイヤー_1" xmlns="http://www.w3.org/2000/svg" version="1.1" viewBox="0 0 60 60">
  <!-- Generator: Adobe Illustrator 29.0.0, SVG Export Plug-In . SVG Version: 2.1.0 Build 186)  -->
  <defs>
    <style>
      .st0 {
        fill: #036;
      }

      .st1, .st2 {
        fill: #fff;
      }

      .st2 {
        font-family: AvenirNext-DemiBold, 'Avenir Next';
        font-size: 14px;
        font-weight: 300;
      }

      .st3 {
        display: none;
      }

      .st4 {
        fill: #9fc;
      }
    </style>
  </defs>
  <g class="st3">
    <rect class="st1" x="-20" y="-20" width="100" height="100"/>
  </g>
  <g>
    <path class="st4" d="M38,13c-4,2-7,10-8,17s-4,15-8,17C16.8,49.6,10,44,0,30c0,16.6,13.4,30,30,30s30-13.4,30-30c-10-14-16.8-19.6-22-17Z"/>
    <path class="st0" d="M0,30c10,14,16.8,19.6,22,17,4-2,7-10,8-17s4-15,8-17,12,3,22,17C60,13.4,46.6,0,30,0S0,13.4,0,30Z"/>
  </g>
  <text class="st2" transform="translate(11.8 42.5)"><tspan x="0" y="0">Bi</tspan></text>
  <text class="st2" transform="translate(29.7 42.5)"><tspan x="0" y="0">Pick</tspan></text>
</svg>