<?xml version="1.0" encoding="UTF-8"?>
<svg xmlns="http://www.w3.org/2000/svg" version="1.1" viewBox="0 0 56 56">
  <defs>
    <style>
      .cls-1 {
        fill: none;
      }
    </style>
  </defs>
  <!-- Generator: Adobe Illustrator 28.7.1, SVG Export Plug-In . SVG Version: 1.2.0 Build 142)  -->
  <g>
    <g id="_レイヤー_1" data-name="レイヤー_1">
      <g id="_レイヤー_1-2" data-name="_レイヤー_1">
        <rect id="Rectangle" class="cls-1" x="18.4" y="15.7" width="20" height="20"/>
        <path id="_xF8FF_" d="M28.2,20.4c.8,0,1.9-.6,2.5-1.4.6-.7,1-1.7,1-2.7s0-.3,0-.4c-.9,0-2,.6-2.7,1.4-.5.6-1,1.6-1,2.6s0,.3,0,.3h.2v.2ZM25.3,35c1.1,0,1.6-.8,3.1-.8s1.8.8,3,.8,2.1-1.2,2.9-2.3c.9-1.3,1.2-2.6,1.3-2.7,0,0-2.5-1-2.5-3.8s1.9-3.5,2-3.6c-1.2-1.8-3.1-1.9-3.6-1.9-1.4,0-2.5.9-3.2.9s-1.8-.8-3-.8c-2.3,0-4.6,2-4.6,5.7s.9,4.7,1.9,6.3c.9,1.3,1.7,2.4,2.9,2.4l-.2-.2Z"/>
      </g>
    </g>
  </g>
</svg>