<?xml version="1.0" encoding="UTF-8"?>
<svg xmlns="http://www.w3.org/2000/svg" xmlns:xlink="http://www.w3.org/1999/xlink" version="1.1" viewBox="0 0 40 40">
  <defs>
    <style>
      .cls-1 {
        fill: none;
      }

      .cls-2 {
        fill: #4285f4;
      }

      .cls-3 {
        fill: #e94235;
      }

      .cls-4 {
        fill: #34a853;
      }

      .cls-5 {
        fill: #fbbc04;
      }

      .cls-6 {
        clip-path: url(#clippath);
      }
    </style>
    <clipPath id="clippath">
      <rect class="cls-1" x="10" y="10" width="20" height="20"/>
    </clipPath>
  </defs>
  <!-- Generator: Adobe Illustrator 28.7.1, SVG Export Plug-In . SVG Version: 1.2.0 Build 142)  -->
  <g>
    <g id="_レイヤー_1" data-name="レイヤー_1">
      <g id="_レイヤー_1-2" data-name="_レイヤー_1">
        <rect class="cls-1" x="10" y="10" width="20" height="20"/>
        <g class="cls-6">
          <g>
            <path class="cls-2" d="M29.6,20.2c0-.7,0-1.4-.2-2h-9.4v3.9h5.4c-.2,1.2-.9,2.3-2,3v2.5h3.2c1.9-1.7,3-4.3,3-7.3h0Z"/>
            <path class="cls-4" d="M20,30c2.7,0,5-.9,6.6-2.4l-3.2-2.5c-.9.6-2,1-3.4,1-2.6,0-4.8-1.8-5.6-4.1h-3.3v2.6c1.6,3.3,5,5.5,8.9,5.5h0Z"/>
            <path class="cls-5" d="M14.4,21.9c-.2-.6-.3-1.2-.3-1.9s.1-1.3.3-1.9v-2.6h-3.3c-.7,1.4-1.1,2.9-1.1,4.5s.4,3.1,1.1,4.5l3.3-2.6Z"/>
            <path class="cls-3" d="M20,14c1.5,0,2.8.5,3.8,1.5l2.9-2.9c-1.7-1.6-4-2.6-6.7-2.6-3.9,0-7.3,2.2-8.9,5.5l3.3,2.6c.8-2.4,3-4.1,5.6-4.1Z"/>
          </g>
        </g>
      </g>
    </g>
  </g>
</svg>